<svg width="380" height="212" viewBox="0 0 380 212" fill="none" xmlns="http://www.w3.org/2000/svg">
<path d="M-1.02637 121.182C70.4104 156.428 94.7881 195.298 103.623 224.785C113.482 257.695 108.397 293.663 119.04 295.897C125.855 297.328 134.24 283.897 149.874 254.454C197.282 165.174 198.355 141.465 218.554 135.311C246.849 126.684 264.291 167.268 307.784 166.394C339.729 165.749 365.578 143.153 383 123.067" stroke="white" stroke-opacity="0.15" stroke-width="0.538342" stroke-miterlimit="10"/>
<path d="M-2.74219 124.726C66.6832 159.213 92.461 196.996 101.996 224.632C112.652 255.516 107.62 289.626 118.152 291.239C124.923 292.277 133.15 279.076 148.252 250.642C194.145 164.246 195.568 140.242 215.611 134.392C244.07 126.202 260.753 169.722 304.707 170.314C305.665 170.327 306.608 170.327 307.553 170.301C338.739 169.427 364.957 146.819 382.752 126.857" stroke="white" stroke-opacity="0.15" stroke-width="0.538342" stroke-miterlimit="10"/>
<path d="M-4.45117 128.269C62.9574 161.994 90.1153 198.624 100.376 224.474C111.812 253.287 106.851 285.583 117.269 286.578C123.998 287.222 132.07 274.249 146.634 246.826C191.002 163.318 192.768 138.941 212.678 133.471C241.275 125.614 257.231 172.195 301.638 174.234C302.612 174.279 303.583 174.324 304.554 174.319C336.256 174.143 363.836 151.069 382.51 130.646" stroke="white" stroke-opacity="0.15" stroke-width="0.538342" stroke-miterlimit="10"/>
<path d="M-6.16602 131.812C59.2354 164.785 87.7307 200.176 98.7504 224.318C110.935 251.013 106.082 281.538 116.38 281.916C123.072 282.163 130.977 269.425 145.012 243.011C187.861 162.382 189.975 137.684 209.739 132.552C238.489 125.085 253.71 174.687 298.564 178.156C299.56 178.233 300.555 178.307 301.546 178.339C333.76 179.376 362.706 155.321 382.258 134.439" stroke="white" stroke-opacity="0.15" stroke-width="0.538342" stroke-miterlimit="10"/>
<path d="M-7.87891 135.354C55.5111 167.564 85.3001 201.643 97.1259 224.16C110.01 248.691 105.318 277.486 115.495 277.253C122.149 277.102 129.89 264.597 143.393 239.194C184.721 161.45 187.186 136.429 206.803 131.631C235.714 124.56 250.196 177.197 295.493 182.08C296.51 182.187 297.528 182.294 298.549 182.361C331.275 184.338 361.585 159.573 382.019 138.227" stroke="white" stroke-opacity="0.15" stroke-width="0.538342" stroke-miterlimit="10"/>
<path d="M-9.5918 138.898C51.7879 170.348 82.8078 203.023 95.5046 224.003C109.015 246.329 104.555 273.435 114.611 272.594C121.23 272.04 128.804 259.774 141.775 235.38C181.585 160.519 184.401 135.181 203.869 130.713C232.938 124.042 246.685 179.726 292.423 185.999C293.463 186.141 294.502 186.286 295.55 186.379C328.785 189.287 360.468 163.823 381.777 142.015" stroke="white" stroke-opacity="0.15" stroke-width="0.538342" stroke-miterlimit="10"/>
<path d="M-11.3047 142.441C48.0625 173.133 80.2335 204.314 93.8779 223.846C107.915 243.942 103.798 269.376 113.723 267.932C120.309 266.975 127.714 254.945 140.151 231.565C178.442 159.588 181.613 133.935 200.929 129.794C230.163 123.526 243.169 182.268 289.349 189.919C290.413 190.095 291.472 190.276 292.543 190.397C326.287 194.231 359.339 168.071 381.527 145.805" stroke="white" stroke-opacity="0.15" stroke-width="0.538342" stroke-miterlimit="10"/>
<path d="M-13.0166 145.985C44.3392 175.918 74.404 208.669 92.2554 223.69C103.067 243.984 103.041 265.313 112.838 263.272C119.391 261.907 126.628 250.124 138.533 227.744C175.303 158.652 178.828 132.688 197.994 128.869C227.392 123.012 239.657 184.821 286.277 193.836C287.361 194.045 288.446 194.26 289.544 194.412C323.797 199.162 358.224 172.32 381.286 149.591" stroke="white" stroke-opacity="0.15" stroke-width="0.538342" stroke-miterlimit="10"/>
<path d="M-14.7305 149.528C40.615 178.702 71.4922 210.581 90.631 223.533C101.579 242.025 102.282 261.243 111.952 258.61C118.472 256.835 125.54 245.301 136.912 223.933C172.157 157.725 176.044 131.455 195.058 127.954C224.621 122.512 236.141 187.398 283.204 197.761C284.31 198.005 285.417 198.254 286.541 198.437C321.305 204.094 357.096 176.575 381.041 153.385" stroke="white" stroke-opacity="0.15" stroke-width="0.538342" stroke-miterlimit="10"/>
<path d="M-16.4443 153.07C36.8897 181.485 68.5793 212.489 89.0055 223.375C100.09 240.066 101.523 257.169 111.065 253.949C117.553 251.761 124.452 240.474 135.29 220.118C169.021 156.789 173.261 130.221 192.12 127.036C221.852 122.014 232.622 189.982 280.132 201.684C281.258 201.961 282.389 202.243 283.539 202.457C318.813 209.017 355.971 180.827 380.795 157.176" stroke="white" stroke-opacity="0.15" stroke-width="0.538342" stroke-miterlimit="10"/>
<path d="M-18.1562 156.613C33.1674 184.27 65.6685 214.4 87.382 223.218C98.6029 238.106 100.764 253.089 110.178 249.287C116.633 246.681 123.365 235.647 133.671 216.305C165.882 155.864 170.481 128.992 189.184 126.118C219.084 121.523 229.102 192.58 277.06 205.607C278.209 205.919 279.362 206.233 280.537 206.479C316.324 213.935 354.848 185.08 380.551 160.968" stroke="white" stroke-opacity="0.15" stroke-width="0.538342" stroke-miterlimit="10"/>
<path d="M-19.8701 160.158C29.44 187.054 62.7588 216.311 85.7586 223.057C97.1158 236.144 100.004 249.004 109.291 244.622C115.711 241.595 122.276 230.819 132.049 212.483C162.74 154.926 167.698 127.76 186.248 125.193C216.318 121.029 225.578 195.176 273.988 209.521C275.159 209.868 276.33 210.215 277.534 210.487C313.835 218.836 353.725 189.322 380.305 164.748" stroke="white" stroke-opacity="0.15" stroke-width="0.538342" stroke-miterlimit="10"/>
<path d="M-21.583 163.701C25.7167 189.837 59.8438 218.221 84.1341 222.905C95.6276 234.189 99.2384 244.92 108.406 239.966C114.789 236.516 121.189 225.997 130.43 208.671C159.605 153.998 164.919 126.541 183.31 124.276C213.551 120.553 222.049 197.796 270.916 213.446C272.107 213.828 273.306 214.206 274.536 214.514C311.352 223.745 352.605 193.583 380.064 168.544" stroke="white" stroke-opacity="0.15" stroke-width="0.538342" stroke-miterlimit="10"/>
<path d="M-23.293 167.245C21.9922 192.622 56.9316 220.132 82.5104 222.746C94.1391 232.228 98.4708 240.831 107.521 235.305C113.865 231.43 120.102 221.173 128.81 204.857C156.462 153.067 162.139 125.321 180.373 123.357C210.786 120.079 218.516 200.425 267.843 217.368C269.057 217.785 270.279 218.195 271.532 218.535C308.864 228.65 351.478 197.832 379.822 172.335" stroke="white" stroke-opacity="0.15" stroke-width="0.538342" stroke-miterlimit="10"/>
<path d="M-25.0088 170.789C18.2671 195.407 54.0201 222.043 80.8862 222.591C92.6512 230.271 97.7005 236.742 106.634 230.642C112.937 226.341 119.015 216.347 127.185 201.039C153.317 152.134 159.354 124.107 177.432 122.437C208.017 119.611 214.974 203.047 264.766 221.288C266.002 221.74 267.247 222.181 268.524 222.553C306.377 233.546 350.35 202.08 379.567 176.123" stroke="white" stroke-opacity="0.15" stroke-width="0.538342" stroke-miterlimit="10"/>
<path d="M-26.7207 174.33C14.5437 198.189 51.1091 223.951 79.2626 222.432C91.165 228.31 96.9277 232.647 105.75 225.981C112.009 221.252 117.928 211.521 125.571 197.223C150.183 151.203 156.579 122.896 174.502 121.517C205.258 119.15 211.438 205.686 261.7 225.204C262.957 225.691 264.226 226.163 265.533 226.566C303.901 238.44 349.232 206.332 379.328 179.918" stroke="white" stroke-opacity="0.15" stroke-width="0.538342" stroke-miterlimit="10"/>
<path d="M-28.4346 177.874C10.8195 200.974 48.1963 225.859 77.6382 222.277C89.6705 226.356 96.1499 228.553 104.863 221.321C111.075 216.163 116.84 206.697 123.95 193.413C147.042 150.277 153.798 121.694 171.565 120.604C202.492 118.704 207.891 208.334 258.628 229.136C259.905 229.66 261.198 230.162 262.526 230.597C301.422 243.331 348.112 210.584 379.083 183.705" stroke="white" stroke-opacity="0.15" stroke-width="0.538342" stroke-miterlimit="10"/>
<path d="M-30.1475 181.422C7.09519 203.763 45.2845 227.777 76.0137 222.124C88.1876 224.398 95.3697 224.464 103.975 216.665C110.141 211.083 115.752 201.877 122.328 189.599C143.901 149.348 151.018 120.491 168.627 119.684C199.727 118.255 204.34 210.978 255.556 233.051C256.854 233.611 258.171 234.143 259.523 234.61C298.947 248.217 346.986 214.834 378.838 187.49" stroke="white" stroke-opacity="0.15" stroke-width="0.538342" stroke-miterlimit="10"/>
<path d="M-31.8604 184.963C3.36983 206.537 41.968 216.205 74.3903 221.962C86.5227 224.116 94.5875 220.363 103.09 211.998C109.205 205.987 114.665 197.046 120.709 185.778C140.762 148.408 148.237 119.286 165.691 118.759C196.96 117.815 200.784 213.63 252.483 236.974C253.802 237.568 255.145 238.132 256.521 238.631C296.472 253.103 345.858 219.085 378.594 191.284" stroke="white" stroke-opacity="0.15" stroke-width="0.538342" stroke-miterlimit="10"/>
<path d="M-33.5732 188.505C-0.3513 209.329 38.7271 228.572 72.7668 221.807C85.0461 219.367 93.802 216.272 102.204 207.339C108.267 200.898 113.578 192.223 119.089 181.964C137.623 147.479 145.455 118.093 162.755 117.843C194.192 117.388 197.223 216.289 249.411 240.897C250.751 241.528 252.118 242.119 253.52 242.652C294.029 257.906 344.738 223.337 378.352 195.074" stroke="white" stroke-opacity="0.15" stroke-width="0.538342" stroke-miterlimit="10"/>
<path d="M-35.2871 192.048C-4.07872 212.112 36.0772 232.002 71.1424 221.65C83.5804 217.977 93.0135 212.177 101.318 202.677C107.327 195.808 112.49 187.397 117.468 178.149C134.482 146.547 142.672 116.824 159.817 116.922C191.422 117.102 193.621 219.024 246.338 244.817C247.697 245.487 249.09 246.105 250.516 246.671C291.545 262.826 343.614 227.589 378.104 198.866" stroke="white" stroke-opacity="0.15" stroke-width="0.538342" stroke-miterlimit="10"/>
<path d="M-37 195.59C-7.80302 214.895 33.636 235.412 69.5179 221.492C123.61 200.503 128.29 115.509 156.882 116.003C189.476 116.565 190.142 227.137 247.515 250.69C289.062 267.746 342.496 231.84 377.859 202.654" stroke="white" stroke-opacity="0.15" stroke-width="0.538342" stroke-miterlimit="10"/>
<path d="M285.006 -2.81705C286.334 12.2665 305.846 22.7278 320.828 23.2465C338.093 23.8424 345.171 11.0885 358.128 15.6843C369.952 19.8738 370.098 32.6437 378.819 35.0687C386.835 37.297 399.985 30.2042 422.773 -6.91067" stroke="white" stroke-opacity="0.15" stroke-width="0.595304" stroke-miterlimit="10"/>
<path d="M421.847 -8.65125C399.335 27.9243 386.164 35.3139 378.019 33.4215C371.983 32.0102 369.91 25.7144 365.362 20.6542C363.095 18.0529 360.252 16.0896 357.089 14.9404C346.728 11.1674 340.147 18.1179 328.784 20.6944C325.887 21.3603 322.927 21.6636 319.965 21.5979C304.911 21.3166 285.566 12.133 283.909 -2.41933" stroke="white" stroke-opacity="0.15" stroke-width="0.595304" stroke-miterlimit="10"/>
<path d="M420.914 -10.389C398.683 25.6452 385.499 33.3297 377.242 31.7715C371.172 30.6256 368.947 24.6181 364.377 19.8031C362.05 17.2886 359.209 15.3711 356.073 14.1966C345.866 10.3765 339.319 16.6081 327.923 19.0379C325.027 19.6618 322.078 19.9666 319.124 19.9475C303.998 19.8546 284.82 12.0008 282.83 -2.02037" stroke="white" stroke-opacity="0.15" stroke-width="0.595304" stroke-miterlimit="10"/>
<path d="M419.983 -12.1212C398.039 23.3641 384.835 31.3405 376.454 30.1239C370.346 29.2379 367.978 23.5243 363.381 18.9517C360.998 16.5257 358.162 14.653 355.055 13.453C344.992 9.58527 338.501 15.1016 327.061 17.3815C324.163 17.9701 321.222 18.2791 318.273 18.3046C303.076 18.4287 284.066 11.8762 281.744 -1.61378" stroke="white" stroke-opacity="0.15" stroke-width="0.595304" stroke-miterlimit="10"/>
<path d="M419.054 -13.8663C397.39 21.0855 384.176 29.3492 375.665 28.4737C369.526 27.8454 367.003 22.4251 362.381 18.1027C359.94 15.7639 357.103 13.9339 354.02 12.7087C344.101 8.79333 337.659 13.5914 326.169 15.7238C323.277 16.2702 320.349 16.5802 317.413 16.651C302.143 16.9919 283.301 11.7382 280.645 -1.22074" stroke="white" stroke-opacity="0.15" stroke-width="0.595304" stroke-miterlimit="10"/>
<path d="M418.133 -15.602C396.743 18.8108 383.498 27.6121 374.876 26.8298C368.721 26.2786 366.027 21.3478 361.384 17.2551C358.887 15.0075 356.05 13.2204 352.992 11.9684C343.217 8.00546 336.829 12.0855 325.306 14.0686C322.416 14.5797 319.499 14.8932 316.571 15.0072C301.228 15.5753 282.554 11.6127 279.567 -0.817775" stroke="white" stroke-opacity="0.15" stroke-width="0.595304" stroke-miterlimit="10"/>
<path d="M417.192 -17.343C396.095 16.5292 382.859 25.3518 374.089 25.1949C367.896 25.0515 365.047 20.2507 360.387 16.4007C357.836 14.2452 354.998 12.5 351.966 11.2215C342.335 7.21092 335.993 10.5752 324.435 12.4089C321.547 12.8814 318.639 13.1968 315.722 13.3537C300.305 14.1387 281.799 11.4852 278.48 -0.421949" stroke="white" stroke-opacity="0.15" stroke-width="0.595304" stroke-miterlimit="10"/>
<path d="M416.261 -19.0813C395.452 14.2526 382.2 23.3674 373.298 23.5335C367.079 23.6583 364.06 19.1786 359.387 15.5535C356.785 13.4921 353.945 11.7896 350.936 10.4869C341.452 6.42628 335.156 9.06956 323.561 10.7615C320.863 11.152 317.985 11.5131 314.869 11.7152C299.377 12.7246 281.041 11.3519 277.39 -0.0189083" stroke="white" stroke-opacity="0.15" stroke-width="0.595304" stroke-miterlimit="10"/>
<path d="M415.331 -20.8217C394.798 11.9709 381.544 21.3527 372.511 21.891C366.264 22.2607 363.072 18.1019 358.384 14.7068C355.73 12.7406 352.886 11.0774 349.901 9.74498C340.561 5.63669 334.317 7.56701 322.681 9.10419C319.972 9.46298 317.102 9.8193 314.009 10.0665C298.462 11.2989 280.286 11.2194 276.303 0.382231" stroke="white" stroke-opacity="0.15" stroke-width="0.595304" stroke-miterlimit="10"/>
<path d="M414.398 -22.5587C394.149 9.69297 380.888 19.344 371.721 20.2363C365.449 20.8485 362.07 17.0204 357.392 13.8539C354.69 11.9841 351.844 10.3593 348.883 8.99698C339.684 4.84093 333.489 6.05298 321.815 7.45358C319.108 7.78134 316.235 8.13755 313.164 8.42734C297.527 9.8939 279.528 11.1033 275.213 0.79463" stroke="white" stroke-opacity="0.15" stroke-width="0.595304" stroke-miterlimit="10"/>
<path d="M413.468 -24.2978C393.502 7.41554 380.232 17.3307 370.939 18.5902C364.642 19.4423 361.087 15.9506 356.399 13.0013C353.649 11.2317 350.797 9.64629 347.86 8.25437C338.808 4.0508 332.661 4.54716 320.948 5.7852C318.23 6.07616 315.365 6.43531 312.319 6.76518C296.608 8.46671 278.781 10.9596 274.129 1.18174" stroke="white" stroke-opacity="0.15" stroke-width="0.595304" stroke-miterlimit="10"/>
<path d="M412.538 -26.036C392.853 5.13636 379.571 15.318 370.144 16.9445C363.819 18.0338 360.085 14.8835 355.397 12.1519C352.702 10.5828 349.942 8.99761 346.827 7.51229C337.919 3.26365 331.821 3.03912 320.07 4.13023C317.347 4.38723 314.486 4.74919 311.458 5.11879C295.673 7.05532 278.014 10.8315 273.033 1.58232" stroke="white" stroke-opacity="0.15" stroke-width="0.595304" stroke-miterlimit="10"/>
<path d="M411.607 -27.7755C392.203 2.84815 378.926 13.2998 369.356 15.2954C363.004 16.6245 359.083 13.8203 354.398 11.3014C351.633 9.8145 348.863 8.27036 345.798 6.76922C337.035 2.46516 330.987 1.53278 319.197 2.47426C316.467 2.69469 313.609 3.05937 310.611 3.47187C294.754 5.64868 277.262 10.703 271.949 1.98229" stroke="white" stroke-opacity="0.15" stroke-width="0.595304" stroke-miterlimit="10"/>
<path d="M410.683 -29.5156C391.557 0.577378 378.257 11.277 368.571 13.6455C362.19 15.2066 358.082 12.7591 353.4 10.4476C350.563 9.04796 347.787 7.54237 344.782 6.02329C336.16 1.6792 330.166 0.020951 318.326 0.812329C315.588 1.00126 312.737 1.36888 309.762 1.81876C293.83 4.24093 276.507 10.5736 270.862 2.3813" stroke="white" stroke-opacity="0.15" stroke-width="0.595304" stroke-miterlimit="10"/>
<path d="M409.745 -31.2512C390.907 -1.69873 377.603 9.25236 367.78 12.0007C361.37 13.7963 357.077 11.708 352.403 9.60169C349.494 8.29193 346.706 6.81948 343.743 5.28423C335.27 0.892686 329.32 -1.48158 317.452 -0.839266C314.589 -0.652877 311.737 -0.311465 308.907 0.183633C292.906 2.83847 275.742 10.4412 269.773 2.78556" stroke="white" stroke-opacity="0.15" stroke-width="0.595304" stroke-miterlimit="10"/>
<path d="M408.814 -32.9909C390.257 -3.97917 376.93 7.23286 366.999 10.3547C360.56 12.3822 356.079 10.6583 351.402 8.75133C348.419 7.53401 345.626 6.09492 342.715 4.54138C334.383 0.10201 328.484 -2.99056 316.584 -2.49495C313.725 -2.3476 310.878 -2.00558 308.061 -1.47098C291.982 1.44983 274.993 10.3131 268.681 3.19583" stroke="white" stroke-opacity="0.15" stroke-width="0.595304" stroke-miterlimit="10"/>
<path d="M407.884 -34.7286C389.61 -6.25485 376.258 5.19737 366.202 8.70997C359.738 10.9645 355.067 9.61521 350.405 7.90596C347.35 6.78367 344.55 5.37018 341.689 3.80081C333.504 -0.686163 327.651 -4.49471 315.706 -4.14898C312.852 -4.0373 310.009 -3.69201 307.204 -3.11619C291.061 0.0453189 274.236 10.1843 267.593 3.58774" stroke="white" stroke-opacity="0.15" stroke-width="0.595304" stroke-miterlimit="10"/>
<path d="M406.952 -36.4667C388.961 -8.54172 375.604 3.17337 365.414 7.06627C358.913 9.55264 354.061 8.58092 349.408 7.06117C346.27 6.03854 343.472 4.65088 340.66 3.06296C332.619 -1.46692 326.818 -5.99939 314.832 -5.80331C311.982 -5.72566 309.144 -5.37702 306.352 -4.7616C290.139 -1.34641 273.478 10.0615 266.503 3.99295" stroke="white" stroke-opacity="0.15" stroke-width="0.595304" stroke-miterlimit="10"/>
<path d="M406.022 -38.2057C388.324 -10.8058 374.937 1.14252 364.625 5.41381C358.091 8.1271 353.059 7.53822 348.41 6.20001C345.207 5.27011 342.39 3.91255 339.633 2.30889C331.736 -2.27426 325.983 -7.52057 313.959 -7.46629C311.114 -7.42271 308.28 -7.07067 305.501 -6.41567C289.217 -2.74415 272.709 9.91946 265.414 4.38735" stroke="white" stroke-opacity="0.15" stroke-width="0.595304" stroke-miterlimit="10"/>
<path d="M405.092 -39.9445C387.665 -13.0838 374.267 -0.888416 363.837 3.77967C357.266 6.72228 352.055 6.52163 347.41 5.37018C344.133 4.55597 341.313 3.20591 338.604 1.581C330.853 -3.05015 325.149 -9.01302 313.086 -9.11363C310.245 -9.10545 307.414 -8.74992 304.649 -8.0541C288.297 -4.11832 271.963 9.81261 264.324 4.80299" stroke="white" stroke-opacity="0.15" stroke-width="0.595304" stroke-miterlimit="10"/>
<path d="M404.159 -41.68C387.015 -15.3581 373.597 -2.93169 363.056 2.13878C356.45 5.30568 351.063 5.49862 346.422 4.52621C343.072 3.82514 340.244 2.48753 337.586 0.851955C329.977 -3.82998 324.322 -10.5121 312.221 -10.7598C309.384 -10.7844 306.555 -10.4253 303.803 -9.69145C287.394 -5.47009 271.214 9.68847 263.238 5.21217" stroke="white" stroke-opacity="0.15" stroke-width="0.595304" stroke-miterlimit="10"/>
<path d="M403.232 -43.4182C375.868 -1.57042 357.506 5.75926 345.414 3.68086C332.214 1.4124 327.724 -11.8758 311.338 -12.415C292.117 -13.0448 271.855 10.2344 262.145 5.61821" stroke="white" stroke-opacity="0.15" stroke-width="0.595304" stroke-miterlimit="10"/>
</svg>
