<svg width="200" height="200" viewBox="0 0 200 200" fill="none" xmlns="http://www.w3.org/2000/svg">
<rect width="200" height="200" rx="50" fill="url(#paint0_linear_1771_12187)"/>
<path fill-rule="evenodd" clip-rule="evenodd" d="M143.07 108.492L107.535 144.649C100.556 151.75 89.3008 151.75 82.3707 144.699L59.7129 121.644L120.461 59.8325L143.119 82.8869C150.049 89.9382 150.049 101.39 143.07 108.492ZM105.226 127.996L98.5906 134.747C97.2144 136.148 95.0027 136.148 93.6265 134.747C92.2504 133.347 92.2504 131.097 93.6265 129.696L100.262 122.945C101.638 121.545 103.85 121.545 105.226 122.945C106.602 124.345 106.602 126.596 105.226 127.996ZM113.532 119.544L126.753 106.091C128.08 104.691 128.08 102.441 126.753 101.041C125.377 99.6403 123.165 99.6403 121.789 101.041L108.568 114.493C107.192 115.893 107.192 118.144 108.568 119.544C109.944 120.944 112.156 120.944 113.532 119.544Z" fill="white"/>
<path d="M120.462 59.8331L59.664 121.645L55.1914 117.094C48.2614 110.043 48.2614 98.5905 55.2406 91.4891L90.7755 55.3323C97.7547 48.2309 109.01 48.2309 115.94 55.2823L120.462 59.8331Z" fill="#D4D4D4"/>
<path d="M146.314 150H55.3874C53.3722 150 51.7012 148.3 51.7012 146.249C51.7012 144.199 53.3722 142.499 55.3874 142.499H146.314C148.329 142.499 150 144.199 150 146.249C150 148.3 148.329 150 146.314 150Z" fill="#D4D4D4"/>
<defs>
<linearGradient id="paint0_linear_1771_12187" x1="14" y1="182.667" x2="182.667" y2="14.0002" gradientUnits="userSpaceOnUse">
<stop stop-color="#161616"/>
<stop offset="1" stop-color="#363535"/>
</linearGradient>
</defs>
</svg>
