<svg width="128" height="128" viewBox="0 0 128 128" fill="none" xmlns="http://www.w3.org/2000/svg">
<rect width="128" height="128" rx="64" fill="url(#paint0_linear_1839_48947)"/>
<path fill-rule="evenodd" clip-rule="evenodd" d="M91.5644 69.4349L68.8221 92.5753C64.3554 97.1201 57.1521 97.1201 52.7168 92.6073L38.2158 77.8525L77.0949 38.293L91.5959 53.0478C96.0311 57.5606 96.0311 64.89 91.5644 69.4349ZM67.3438 81.9173L63.0973 86.2381C62.2166 87.1343 60.8011 87.1343 59.9203 86.2381C59.0396 85.342 59.0396 83.9017 59.9203 83.0055L64.1668 78.6847C65.0476 77.7885 66.4631 77.7885 67.3438 78.6847C68.2246 79.5809 68.2246 81.0211 67.3438 81.9173ZM72.6598 76.5083L81.1214 67.8986C81.9707 67.0025 81.9707 65.5622 81.1214 64.666C80.2406 63.7699 78.8251 63.7699 77.9444 64.666L69.4828 73.2757C68.6021 74.1718 68.6021 75.6121 69.4828 76.5083C70.3636 77.4044 71.7791 77.4044 72.6598 76.5083Z" fill="white"/>
<path d="M77.0955 38.2932L38.185 77.8527L35.3225 74.9402C30.8873 70.4273 30.8873 63.0979 35.354 58.5531L58.0963 35.4127C62.563 30.8678 69.7663 30.8678 74.2016 35.3807L77.0955 38.2932Z" fill="#D4D4D4"/>
<path d="M93.6408 96.0001H35.448C34.1584 96.0001 33.0889 94.9119 33.0889 93.5997C33.0889 92.2874 34.1584 91.1992 35.448 91.1992H93.6408C94.9305 91.1992 96 92.2874 96 93.5997C96 94.9119 94.9305 96.0001 93.6408 96.0001Z" fill="#D4D4D4"/>
<defs>
<linearGradient id="paint0_linear_1839_48947" x1="8.96" y1="116.907" x2="116.907" y2="8.96031" gradientUnits="userSpaceOnUse">
<stop stop-color="#161616"/>
<stop offset="1" stop-color="#363535"/>
</linearGradient>
</defs>
</svg>
